<?xml version="1.0" encoding="utf-8"?>
<!-- Generator: Adobe Illustrator 15.1.0, SVG Export Plug-In . SVG Version: 6.00 Build 0)  -->
<!DOCTYPE svg PUBLIC "-//W3C//DTD SVG 1.1//EN" "http://www.w3.org/Graphics/SVG/1.1/DTD/svg11.dtd">
<svg version="1.1" id="Layer_1" xmlns="http://www.w3.org/2000/svg" xmlns:xlink="http://www.w3.org/1999/xlink" x="0px" y="0px"
	 width="250.49px" height="72px" viewBox="0 0 250.49 72" enable-background="new 0 0 250.49 72" xml:space="preserve">
<path fill-rule="evenodd" clip-rule="evenodd" fill="#FFFFFF" d="M250.32,32.294h-13.83c0.053,2.05,0.723,3.619,2.008,4.699
	c1.166,0.965,2.672,1.448,4.523,1.448c2.047,0,3.916-0.324,5.596-0.979l0.723,3.197c-1.965,0.855-4.281,1.281-6.957,1.281
	c-3.217,0-5.742-0.945-7.58-2.834c-1.834-1.893-2.752-4.435-2.752-7.619c0-3.126,0.854-5.731,2.564-7.809
	c1.789-2.218,4.209-3.326,7.254-3.326c2.99,0,5.254,1.108,6.791,3.326c1.217,1.757,1.83,3.938,1.83,6.523
	C250.502,30.905,250.445,31.605,250.32,32.294z M245.199,25.465c-0.799-1.283-2.027-1.924-3.672-1.924
	c-1.508,0-2.736,0.625-3.67,1.879c-0.768,0.997-1.223,2.194-1.363,3.584l9.6,0.004C246.127,27.64,245.824,26.462,245.199,25.465z
	 M224.662,26.577c-0.766,1.081-1.15,2.447-1.15,4.097v10.883H218.9v-14.21c0.006-2.177-0.039-4.354-0.133-6.53h4.016l0.168,3.969
	h0.127c0.49-1.364,1.254-2.464,2.305-3.288c0.963-0.72,2.131-1.109,3.334-1.11c0.426,0,0.811,0.029,1.152,0.084l0.004,4.396
	c-0.48-0.086-0.967-0.129-1.453-0.127C226.799,24.74,225.543,25.349,224.662,26.577z M204.551,42.025
	c-3.049,0-5.473-1.008-7.281-3.025c-1.807-2.021-2.711-4.568-2.711-7.639c0-3.214,0.934-5.848,2.797-7.894
	c1.865-2.05,4.377-3.075,7.537-3.075c3.045,0,5.49,1.013,7.34,3.031c1.77,1.958,2.65,4.487,2.65,7.592
	c0,3.188-0.914,5.806-2.734,7.854C210.244,40.977,207.709,42.025,204.551,42.025z M208.869,26.227
	c-0.967-1.647-2.352-2.471-4.143-2.471c-1.848,0-3.264,0.823-4.229,2.471c-0.826,1.364-1.236,3.021-1.236,4.98
	c0,1.901,0.412,3.536,1.236,4.896c0.998,1.646,2.389,2.47,4.189,2.47c1.762,0,3.143-0.842,4.143-2.512
	c0.848-1.396,1.273-3.036,1.273-4.941C210.104,29.221,209.693,27.591,208.869,26.227z M186.92,34.344
	c0,2.562,0.895,3.837,2.689,3.837c0.824,0,1.508-0.068,2.049-0.213l0.127,3.5c-0.908,0.34-2.104,0.51-3.586,0.51
	c-1.82,0-3.242-0.555-4.27-1.666c-1.023-1.111-1.537-2.973-1.537-5.592V24.264h-3.027v-3.459h3.027v-3.798l4.527-1.366v5.164h5.082
	v3.468h-5.082V34.344z M169.498,25.001c2.479,0.998,4.299,2.161,5.465,3.497c1.174,1.336,1.758,3.002,1.758,4.989
	c0,2.449-0.855,4.44-2.559,5.977c-1.871,1.678-4.486,2.518-7.838,2.518c-3.096,0-5.578-0.596-7.451-1.791l1.066-3.841
	c2.021,1.197,4.242,1.794,6.66,1.794c1.738,0,3.09-0.395,4.055-1.175c0.965-0.781,1.455-1.827,1.455-3.134
	c0-1.169-0.404-2.149-1.199-2.946c-0.797-0.795-2.117-1.537-3.969-2.217c-5.039-1.879-7.561-4.626-7.561-8.24
	c0-2.361,0.893-4.294,2.67-5.805c1.777-1.509,4.133-2.263,7.064-2.263c2.619,0,4.801,0.455,6.533,1.365l-1.156,3.757
	c-1.631-0.881-3.471-1.322-5.529-1.322c-1.627,0-2.902,0.399-3.814,1.195c-0.768,0.711-1.156,1.578-1.156,2.607
	c0,1.134,0.443,2.077,1.324,2.816C166.082,23.464,167.479,24.206,169.498,25.001z M147.162,39.293
	c-1.719,1.824-3.85,2.732-6.396,2.732c-2.748,0-4.725-0.979-5.926-2.941v10.883h-4.609V27.632c0-2.216-0.059-4.488-0.172-6.819
	h4.055l0.258,3.289h0.086c1.535-2.478,3.869-3.716,7.002-3.716c2.445,0,4.488,0.966,6.127,2.9c1.631,1.939,2.453,4.485,2.453,7.644
	l0,0C150.039,34.458,149.08,37.246,147.162,39.293z M143.971,26.103c-0.996-1.363-2.33-2.047-4.008-2.047
	c-1.137,0-2.172,0.381-3.1,1.132c-0.924,0.756-1.527,1.743-1.811,2.967c-0.141,0.571-0.217,1.035-0.217,1.403v3.461
	c0,1.506,0.465,2.78,1.387,3.822c0.924,1.034,2.127,1.557,3.609,1.557c1.74,0,3.09-0.672,4.055-2.005
	c0.969-1.338,1.453-3.102,1.453-5.294C145.34,29.08,144.885,27.416,143.971,26.103z M116.903,42.025
	c-2.749,0-4.725-0.979-5.925-2.941v10.883h-4.61V27.632c0-2.216-0.058-4.488-0.171-6.819h4.054l0.257,3.289h0.086
	c1.538-2.478,3.871-3.716,7.001-3.716c2.448,0,4.491,0.966,6.125,2.9c1.633,1.939,2.452,4.485,2.452,7.644
	c0,3.528-0.958,6.316-2.875,8.363C121.582,41.117,119.448,42.025,116.903,42.025z M120.111,26.103
	c-0.997-1.363-2.335-2.047-4.013-2.047c-1.137,0-2.171,0.381-3.094,1.132c-0.926,0.756-1.531,1.743-1.814,2.967
	c-0.126,0.458-0.198,0.929-0.214,1.403v3.461c0,1.506,0.463,2.78,1.388,3.822c0.926,1.038,2.128,1.557,3.607,1.557
	c1.736,0,3.087-0.672,4.054-2.005c0.969-1.338,1.453-3.102,1.453-5.294C121.478,29.08,121.024,27.416,120.111,26.103z
	 M94.793,33.107h-9.349l-2.562,8.45h-4.781l9.266-28.767h5.721l9.306,28.767h-4.911L94.793,33.107z M91.55,22.05
	c-0.257-0.768-0.742-2.574-1.451-5.419h-0.086c-0.286,1.223-0.742,3.03-1.367,5.419l-2.392,7.512h7.728L91.55,22.05z M53.57,63.059
	c-2.958,4.424-6.058,8.75-10.981,8.826c-4.782,0.109-6.391-2.813-11.876-2.813c-5.536,0-7.25,2.736-11.836,2.922
	c-4.689,0.174-8.271-4.719-11.337-9.104C1.411,53.941-3.36,37.672,3.037,26.6c3.099-5.431,8.751-8.927,14.792-9.02
	c4.695-0.097,9.05,3.169,11.935,3.169c2.829,0,8.215-3.906,13.768-3.321c2.323,0.067,8.935,0.917,13.2,7.134
	c-0.345,0.206-7.876,4.632-7.794,13.727c0.096,10.898,9.542,14.506,9.654,14.545C58.536,53.09,57.113,58.039,53.57,63.059z
	 M29.2,16.6c-0.525-4.097,1.508-8.454,3.783-11.113C35.554,2.469,40.02,0.159,43.591,0c0.469,4.26-1.219,8.456-3.687,11.541
	C37.33,14.578,33.211,16.9,29.2,16.6z"/>
</svg>
