<?xml version="1.0" encoding="utf-8"?>
<!-- Generator: Adobe Illustrator 15.1.0, SVG Export Plug-In . SVG Version: 6.00 Build 0)  -->
<!DOCTYPE svg PUBLIC "-//W3C//DTD SVG 1.1//EN" "http://www.w3.org/Graphics/SVG/1.1/DTD/svg11.dtd">
<svg version="1.1" id="Layer_1" xmlns="http://www.w3.org/2000/svg" xmlns:xlink="http://www.w3.org/1999/xlink" x="0px" y="0px"
	 width="18.24px" height="32px" viewBox="0 0 18.24 32" enable-background="new 0 0 18.24 32" xml:space="preserve">
<path fill="#3C9E2D" d="M18.012,15.452L2.789,0.229c-0.304-0.304-0.794-0.304-1.098,0L0.227,1.692C0.082,1.838,0,2.035,0,2.241
	C0,2.447,0.082,2.645,0.227,2.79L13.438,16L0.227,29.212C0.082,29.357,0,29.555,0,29.761s0.082,0.402,0.227,0.549l1.465,1.464
	C1.843,31.926,2.041,32,2.24,32c0.198,0,0.397-0.074,0.549-0.227L18.012,16.55C18.315,16.246,18.315,15.756,18.012,15.452z"/>
</svg>
