<?xml version="1.0" encoding="utf-8"?>
<!-- Generator: Adobe Illustrator 15.1.0, SVG Export Plug-In . SVG Version: 6.00 Build 0)  -->
<!DOCTYPE svg PUBLIC "-//W3C//DTD SVG 1.1//EN" "http://www.w3.org/Graphics/SVG/1.1/DTD/svg11.dtd">
<svg version="1.1" id="Layer_1" xmlns="http://www.w3.org/2000/svg" xmlns:xlink="http://www.w3.org/1999/xlink" x="0px" y="0px"
	 width="16.06px" height="18px" viewBox="0 0 16.06 18" enable-background="new 0 0 16.06 18" xml:space="preserve">
<path fill-rule="evenodd" clip-rule="evenodd" fill="#FFFFFF" d="M14.936,18H1.123c-0.601,0-1.125-0.525-1.125-1.124V13h2.063v2.938
	h12V13h2v3.876C16.061,17.475,15.535,18,14.936,18z M12.658,8.914l-4.26,4.436c-0.15,0.15-0.225,0.226-0.45,0.226
	S7.572,13.5,7.498,13.35l-3.976-4.5C3.373,8.7,3.373,8.477,3.447,8.251C3.522,8.101,3.748,7.95,3.973,7.95h2.063V0.6
	c0-0.373,0.299-0.599,0.599-0.599h2.813c0.375,0,0.601,0.299,0.601,0.599v7.338h2.161c0.225,0,0.449,0.076,0.524,0.301
	C12.733,9.025,12.809,8.688,12.658,8.914z"/>
</svg>
