<?xml version="1.0" encoding="utf-8"?>
<!-- Generator: Adobe Illustrator 15.1.0, SVG Export Plug-In . SVG Version: 6.00 Build 0)  -->
<!DOCTYPE svg PUBLIC "-//W3C//DTD SVG 1.1//EN" "http://www.w3.org/Graphics/SVG/1.1/DTD/svg11.dtd">
<svg version="1.1" id="Layer_1" xmlns="http://www.w3.org/2000/svg" xmlns:xlink="http://www.w3.org/1999/xlink" x="0px" y="0px"
	 width="279.41px" height="65.37px" viewBox="0 0 279.41 65.37" enable-background="new 0 0 279.41 65.37" xml:space="preserve">
<path fill-rule="evenodd" clip-rule="evenodd" fill="#FFFFFF" d="M267.176,46.997h-4.605l4.605-10.18l-8-18.424h4.849l5.333,13.091
	h0.242l5.091-13.091h4.848L267.176,46.997z M259.418,37.786h-4.363v-2.424h-0.242c-1.212,1.455-2.666,2.908-5.817,2.908
	c-3.879,0-7.515-2.666-7.515-6.786c0-4.363,4.363-6.788,8.727-6.788c1.939,0,3.879,0.728,4.605,1.212v-0.242
	c-0.242-2.424-2.424-3.878-4.848-3.878c-1.697,0-3.152,0.484-4.121,2.181l-4.121-1.696c1.212-3.151,4.605-4.605,8-4.605
	c5.09,0,9.211,3.151,9.695,8.483V37.786z M250.449,28.574c-2.182,0-4.848,0.729-4.848,3.152c0,1.938,2.182,2.666,3.636,2.666
	c2.424,0,4.849-1.939,5.333-4.848C253.358,29.061,252.389,28.574,250.449,28.574z M233.966,7.486h4.605v30.3h-4.605V7.486z
	 M221.604,26.394h-6.303v11.393h-4.606v-30.3h10.909c5.09,0,9.938,3.636,9.938,9.453S226.693,26.394,221.604,26.394z
	 M221.846,11.606h-6.545V22.03h6.545c3.15,0,5.09-2.666,5.332-5.333C227.178,14.516,225.238,11.606,221.846,11.606z M192.271,34.636
	c2.424,0,3.879-1.213,5.091-2.909l3.394,2.425c-0.97,1.695-3.879,4.605-8.484,4.605c-5.818,0-10.182-4.605-10.182-10.424
	c0-6.303,4.363-10.424,9.697-10.424c5.332,0,7.757,4.121,8.727,6.546l0.484,1.211l-13.816,5.818
	C188.393,33.665,189.848,34.636,192.271,34.636z M195.665,23.969c-0.485-1.212-2.182-2.181-3.878-2.181
	c-2.182,0-5.334,2.181-5.334,6.06L195.665,23.969z M175.061,7.486h4.605v30.3h-4.605V7.486z M162.455,47.482
	c-5.09,0-7.999-3.394-9.211-6.06l3.879-1.698c0.484,1.698,2.424,3.637,5.09,3.637c3.394,0,5.576-2.181,5.576-6.061v-1.454h-0.243
	c-0.97,1.213-2.909,2.424-5.333,2.424c-5.333,0-9.938-4.362-9.938-10.181c0-5.817,4.849-10.423,9.938-10.423
	c2.424,0,4.363,1.211,5.576,2.424v-1.697h4.363v18.424C172.152,44.332,167.789,47.482,162.455,47.482z M162.455,21.788
	c-3.15,0-5.817,2.667-5.817,6.302c0,3.637,2.667,6.303,5.817,6.303c3.151,0,5.576-2.666,5.576-6.303
	C168.031,24.455,165.606,21.788,162.455,21.788z M139.912,38.757c-5.818,0-10.424-4.605-10.424-10.424
	c0-6.061,4.606-10.424,10.424-10.424s10.423,4.121,10.423,10.424C150.335,34.393,145.729,38.757,139.912,38.757z M139.912,21.788
	c-3.151,0-5.818,2.667-5.818,6.302c0,3.637,2.667,6.303,5.818,6.303c3.151,0,5.818-2.666,5.818-6.303
	C145.729,24.212,143.063,21.788,139.912,21.788z M117.368,38.757c-5.818,0-10.423-4.605-10.423-10.424
	c0-6.061,4.605-10.424,10.423-10.424s10.423,4.121,10.423,10.424C127.791,34.393,123.186,38.757,117.368,38.757z M117.368,21.788
	c-3.151,0-5.818,2.667-5.818,6.302c0,3.637,2.667,6.303,5.818,6.303s5.818-2.666,5.818-6.303
	C123.186,24.212,120.519,21.788,117.368,21.788z M90.703,38.514c-8.727,0-16.241-7.272-16.241-15.999S81.976,6.516,90.703,6.516
	c4.848,0,8.242,1.939,10.908,4.363L98.46,14.03c-1.939-1.696-4.605-3.151-8-3.151c-6.302,0-11.393,5.091-11.393,11.636
	c0,6.546,4.848,11.637,11.393,11.637c4.121,0,6.545-1.698,8-3.152c1.212-1.212,2.182-3.151,2.424-5.575H90.46v-4.363h15.029
	c0.242,0.728,0.242,1.696,0.242,2.666c0,3.152-0.969,7.272-3.878,10.182C98.945,37.06,95.551,38.514,90.703,38.514z M46.075,42.171
	l-9.484-9.484l9.484-9.484c6.863,3.85,11.83,6.635,11.83,6.635s1.953,1.223,1.918,2.85c0.034,1.627-1.918,2.85-1.918,2.85
	S52.938,38.321,46.075,42.171z M3.904,0c0.719,0.104,1.57,0.402,2.587,0.977c3.832,2.168,23.721,13.327,37.606,21.116l-9.05,9.051
	L3.904,0z M1.455,64.735c-1.21-1.083-1.33-3.068-1.33-3.068v-25.04v-2.121v-3.639v-2.122V3.705c0,0,0.12-1.984,1.33-3.066
	l32.049,32.048L1.455,64.735z M44.098,43.28C30.212,51.069,10.323,62.229,6.491,64.396c-1.017,0.574-1.868,0.871-2.587,0.977
	l31.144-31.144L44.098,43.28z"/>
</svg>
