<?xml version="1.0" encoding="utf-8"?>
<!-- Generator: Adobe Illustrator 15.1.0, SVG Export Plug-In . SVG Version: 6.00 Build 0)  -->
<!DOCTYPE svg PUBLIC "-//W3C//DTD SVG 1.1//EN" "http://www.w3.org/Graphics/SVG/1.1/DTD/svg11.dtd">
<svg version="1.1" id="Layer_1" xmlns="http://www.w3.org/2000/svg" xmlns:xlink="http://www.w3.org/1999/xlink" x="0px" y="0px"
	 width="22.02px" height="22.02px" viewBox="0 0 22.02 22.02" enable-background="new 0 0 22.02 22.02" xml:space="preserve">
<path fill-rule="evenodd" clip-rule="evenodd" fill="#3C9E2D" d="M11.01,22.018c-6.08,0-11.009-4.928-11.009-11.007
	S4.93,0.002,11.01,0.002c6.08,0,11.008,4.93,11.008,11.009S17.09,22.018,11.01,22.018z M11.01,1.004
	c-5.527,0-10.008,4.48-10.008,10.007c0,5.527,4.48,10.007,10.008,10.007s10.008-4.479,10.008-10.007
	C21.018,5.484,16.537,1.004,11.01,1.004z M4.572,10.784l1.645-1.646l3.098,3.098l6.049-6.047l1.643,1.645l-7.691,7.691L4.572,10.784
	z"/>
</svg>
